<?xml version="1.0" encoding="UTF-8" standalone="no"?>
<!-- Created with Inkscape (http://www.inkscape.org/) -->

<svg
   xmlns:dc="http://purl.org/dc/elements/1.1/"
   xmlns:cc="http://creativecommons.org/ns#"
   xmlns:rdf="http://www.w3.org/1999/02/22-rdf-syntax-ns#"
   xmlns:svg="http://www.w3.org/2000/svg"
   xmlns="http://www.w3.org/2000/svg"
   xmlns:xlink="http://www.w3.org/1999/xlink"
   xmlns:sodipodi="http://sodipodi.sourceforge.net/DTD/sodipodi-0.dtd"
   xmlns:inkscape="http://www.inkscape.org/namespaces/inkscape"
   width="1280"
   height="800"
   viewBox="0 0 338.66666 211.66667"
   version="1.1"
   id="svg8"
   inkscape:version="0.92.3 (2405546, 2018-03-11)"
   sodipodi:docname="screenshot.svg"
   inkscape:export-filename="/home/mgsloan/proj/gmail-label-switch-shortcuts/etc/screenshot.png"
   inkscape:export-xdpi="96"
   inkscape:export-ydpi="96">
  <defs
     id="defs2">
    <linearGradient
       id="linearGradient4750">
      <stop
         offset="0"
         style="stop-color:#ffffff;stop-opacity:0"
         id="stop4752" />
      <stop
         offset=".5"
         style="stop-color:#ffffff"
         id="stop4758" />
      <stop
         offset="1"
         style="stop-color:#ffffff;stop-opacity:0"
         id="stop4754" />
    </linearGradient>
    <radialGradient
       inkscape:collect="always"
       r="15.095"
       gradientTransform="matrix(2.1541 -4.6772e-16 4.6772e-16 2.1541 -76.776 -33.597)"
       cx="24.5"
       cy="29.5"
       gradientUnits="userSpaceOnUse"
       id="radialGradient4716">
      <stop
         offset="0"
         style="stop-color:#f2f4f1"
         id="stop4712" />
      <stop
         offset="1"
         style="stop-color:#d3d7cf"
         id="stop4714" />
    </radialGradient>
    <linearGradient
       inkscape:collect="always"
       x1="24.095"
       y1="12.595"
       gradientTransform="matrix(.99368 0 0 .99368 -47.943 1.0379)"
       x2="24.095"
       gradientUnits="userSpaceOnUse"
       y2="34.095"
       id="linearGradient4734">
      <stop
         offset="0"
         style="stop-color:#eeeeec"
         id="stop4730" />
      <stop
         offset="1"
         style="stop-color:#ffffff"
         id="stop4732" />
    </linearGradient>
    <radialGradient
       r="15.095"
       cy="29.5"
       cx="24.5"
       gradientTransform="matrix(2.3500735,0,0,2.2661167,-366.2006,104.29206)"
       gradientUnits="userSpaceOnUse"
       id="radialGradient959"
       xlink:href="#radialGradient4716"
       inkscape:collect="always" />
    <linearGradient
       y2="34.095"
       x2="24.095"
       y1="12.595"
       x1="24.095"
       gradientTransform="matrix(1.0840819,0,0,1.045353,-334.74446,140.72801)"
       gradientUnits="userSpaceOnUse"
       id="linearGradient961"
       xlink:href="#linearGradient4734"
       inkscape:collect="always" />
    <linearGradient
       gradientTransform="matrix(1.155733,0,0,1.2448116,279.71422,137.91882)"
       y2="8.162"
       x2="39.438"
       y1="6.7174"
       x1="38.293"
       gradientUnits="userSpaceOnUse"
       id="linearGradient963"
       xlink:href="#linearGradient4750"
       inkscape:collect="always" />
    <linearGradient
       gradientTransform="matrix(1.1554224,0,0,1.217942,281.98673,138.04851)"
       y2="6.7844"
       x2="9.0675"
       y1="7.9334"
       x1="8.1169"
       gradientUnits="userSpaceOnUse"
       id="linearGradient965"
       xlink:href="#linearGradient4750"
       inkscape:collect="always" />
    <radialGradient
       inkscape:collect="always"
       xlink:href="#radialGradient4716"
       id="radialGradient1229"
       gradientUnits="userSpaceOnUse"
       gradientTransform="matrix(2.3500735,0,0,2.2661167,-365.63972,154.93963)"
       cx="24.5"
       cy="29.5"
       r="15.095" />
    <linearGradient
       inkscape:collect="always"
       xlink:href="#linearGradient4734"
       id="linearGradient1231"
       gradientUnits="userSpaceOnUse"
       gradientTransform="matrix(1.0840819,0,0,1.045353,-334.18358,191.37558)"
       x1="24.095"
       y1="12.595"
       x2="24.095"
       y2="34.095" />
    <linearGradient
       inkscape:collect="always"
       xlink:href="#linearGradient4750"
       id="linearGradient1233"
       gradientUnits="userSpaceOnUse"
       gradientTransform="matrix(1.155733,0,0,1.2448116,279.15334,188.56639)"
       x1="38.293"
       y1="6.7174"
       x2="39.438"
       y2="8.162" />
    <linearGradient
       inkscape:collect="always"
       xlink:href="#linearGradient4750"
       id="linearGradient1235"
       gradientUnits="userSpaceOnUse"
       gradientTransform="matrix(1.1554224,0,0,1.217942,281.42585,188.69608)"
       x1="8.1169"
       y1="7.9334"
       x2="9.0675"
       y2="6.7844" />
    <radialGradient
       inkscape:collect="always"
       xlink:href="#radialGradient4716"
       id="radialGradient1269"
       gradientUnits="userSpaceOnUse"
       gradientTransform="matrix(2.3500735,0,0,2.2661167,-151.7168,104.29206)"
       cx="24.5"
       cy="29.5"
       r="15.095" />
    <linearGradient
       inkscape:collect="always"
       xlink:href="#linearGradient4734"
       id="linearGradient1271"
       gradientUnits="userSpaceOnUse"
       gradientTransform="matrix(1.0840819,0,0,1.045353,-120.26066,140.72801)"
       x1="24.095"
       y1="12.595"
       x2="24.095"
       y2="34.095" />
    <linearGradient
       inkscape:collect="always"
       xlink:href="#linearGradient4750"
       id="linearGradient1273"
       gradientUnits="userSpaceOnUse"
       gradientTransform="matrix(1.155733,0,0,1.2448116,65.230422,137.91882)"
       x1="38.293"
       y1="6.7174"
       x2="39.438"
       y2="8.162" />
    <linearGradient
       inkscape:collect="always"
       xlink:href="#linearGradient4750"
       id="linearGradient1275"
       gradientUnits="userSpaceOnUse"
       gradientTransform="matrix(1.1554224,0,0,1.217942,67.502932,138.04851)"
       x1="8.1169"
       y1="7.9334"
       x2="9.0675"
       y2="6.7844" />
    <linearGradient
       inkscape:collect="always"
       xlink:href="#linearGradient4750"
       id="linearGradient1377"
       gradientUnits="userSpaceOnUse"
       gradientTransform="matrix(1.155733,0,0,1.2448116,108.66172,137.91882)"
       x1="38.293"
       y1="6.7174"
       x2="39.438"
       y2="8.162" />
    <radialGradient
       inkscape:collect="always"
       xlink:href="#radialGradient4716"
       id="radialGradient1405"
       gradientUnits="userSpaceOnUse"
       gradientTransform="matrix(2.3500735,0,0,2.2661167,-151.7168,104.29206)"
       cx="24.5"
       cy="29.5"
       r="15.095" />
    <linearGradient
       inkscape:collect="always"
       xlink:href="#linearGradient4734"
       id="linearGradient1407"
       gradientUnits="userSpaceOnUse"
       gradientTransform="matrix(1.0840819,0,0,1.045353,-120.26066,140.72801)"
       x1="24.095"
       y1="12.595"
       x2="24.095"
       y2="34.095" />
    <linearGradient
       inkscape:collect="always"
       xlink:href="#linearGradient4750"
       id="linearGradient1409"
       gradientUnits="userSpaceOnUse"
       gradientTransform="matrix(1.1554224,0,0,1.217942,67.502932,138.04851)"
       x1="8.1169"
       y1="7.9334"
       x2="9.0675"
       y2="6.7844" />
    <radialGradient
       inkscape:collect="always"
       xlink:href="#radialGradient4716"
       id="radialGradient1411"
       gradientUnits="userSpaceOnUse"
       gradientTransform="matrix(2.3500735,0,0,2.2661167,-151.7168,104.29206)"
       cx="24.5"
       cy="29.5"
       r="15.095" />
    <linearGradient
       inkscape:collect="always"
       xlink:href="#linearGradient4734"
       id="linearGradient1413"
       gradientUnits="userSpaceOnUse"
       gradientTransform="matrix(1.0840819,0,0,1.045353,-120.26066,140.72801)"
       x1="24.095"
       y1="12.595"
       x2="24.095"
       y2="34.095" />
    <radialGradient
       inkscape:collect="always"
       xlink:href="#radialGradient4716"
       id="radialGradient1453"
       gradientUnits="userSpaceOnUse"
       gradientTransform="matrix(2.3500735,0,0,2.2661167,-151.7168,104.29206)"
       cx="24.5"
       cy="29.5"
       r="15.095" />
    <linearGradient
       inkscape:collect="always"
       xlink:href="#linearGradient4734"
       id="linearGradient1455"
       gradientUnits="userSpaceOnUse"
       gradientTransform="matrix(1.0840819,0,0,1.045353,-120.26066,140.72801)"
       x1="24.095"
       y1="12.595"
       x2="24.095"
       y2="34.095" />
    <linearGradient
       inkscape:collect="always"
       xlink:href="#linearGradient4750"
       id="linearGradient1457"
       gradientUnits="userSpaceOnUse"
       gradientTransform="matrix(1.155733,0,0,1.2448116,65.230422,137.91882)"
       x1="38.293"
       y1="6.7174"
       x2="39.438"
       y2="8.162" />
    <linearGradient
       inkscape:collect="always"
       xlink:href="#linearGradient4750"
       id="linearGradient1459"
       gradientUnits="userSpaceOnUse"
       gradientTransform="matrix(1.1554224,0,0,1.217942,67.502932,138.04851)"
       x1="8.1169"
       y1="7.9334"
       x2="9.0675"
       y2="6.7844" />
    <radialGradient
       inkscape:collect="always"
       xlink:href="#radialGradient4716"
       id="radialGradient1461"
       gradientUnits="userSpaceOnUse"
       gradientTransform="matrix(2.3500735,0,0,2.2661167,-151.7168,104.29206)"
       cx="24.5"
       cy="29.5"
       r="15.095" />
    <linearGradient
       inkscape:collect="always"
       xlink:href="#linearGradient4734"
       id="linearGradient1463"
       gradientUnits="userSpaceOnUse"
       gradientTransform="matrix(1.0840819,0,0,1.045353,-120.26066,140.72801)"
       x1="24.095"
       y1="12.595"
       x2="24.095"
       y2="34.095" />
    <linearGradient
       inkscape:collect="always"
       xlink:href="#linearGradient4750"
       id="linearGradient1465"
       gradientUnits="userSpaceOnUse"
       gradientTransform="matrix(1.155733,0,0,1.2448116,108.66172,137.91882)"
       x1="38.293"
       y1="6.7174"
       x2="39.438"
       y2="8.162" />
    <linearGradient
       inkscape:collect="always"
       xlink:href="#linearGradient4750"
       id="linearGradient1467"
       gradientUnits="userSpaceOnUse"
       gradientTransform="matrix(1.1554224,0,0,1.217942,67.502932,138.04851)"
       x1="8.1169"
       y1="7.9334"
       x2="9.0675"
       y2="6.7844" />
  </defs>
  <sodipodi:namedview
     id="base"
     pagecolor="#ffffff"
     bordercolor="#666666"
     borderopacity="1.0"
     inkscape:pageopacity="0.0"
     inkscape:pageshadow="2"
     inkscape:zoom="1.979899"
     inkscape:cx="556.29458"
     inkscape:cy="500.82663"
     inkscape:document-units="mm"
     inkscape:current-layer="layer1"
     showgrid="false"
     inkscape:window-width="3840"
     inkscape:window-height="2160"
     inkscape:window-x="0"
     inkscape:window-y="0"
     inkscape:window-maximized="0"
     units="px"
     showguides="true"
     inkscape:guide-bbox="true" />
  <metadata
     id="metadata5">
    <rdf:RDF>
      <cc:Work
         rdf:about="">
        <dc:format>image/svg+xml</dc:format>
        <dc:type
           rdf:resource="http://purl.org/dc/dcmitype/StillImage" />
        <dc:title></dc:title>
      </cc:Work>
    </rdf:RDF>
  </metadata>
  <g
     inkscape:label="Layer 1"
     inkscape:groupmode="layer"
     id="layer1"
     transform="translate(0,-85.333317)">
    <image
       sodipodi:absref="/home/mgsloan/proj/gmail-label-switch-shortcuts/etc/screenshot-base.png"
       xlink:href="screenshot-base.png"
       width="338.66666"
       height="211.66667"
       preserveAspectRatio="none"
       id="image917"
       x="0.045860041"
       y="85.354279" />
    <rect
       x="288.41016"
       y="143.66708"
       width="40.371609"
       height="40.340687"
       ry="4.9430094"
       rx="4.9468169"
       inkscape:r_cx="true"
       inkscape:r_cy="true"
       style="color:#000000;display:block;fill:#d3d7cf;stroke:#888a85;stroke-width:1.07675374"
       id="rect933" />
    <rect
       x="-324.44562"
       y="147.52283"
       transform="scale(-1,1)"
       width="31.64488"
       height="30.51436"
       ry="3.7390244"
       rx="3.8775506"
       inkscape:r_cx="true"
       inkscape:r_cy="true"
       style="color:#000000;display:block;fill:url(#radialGradient959);stroke:url(#linearGradient961);stroke-width:1.07150066;stroke-miterlimit:4;stroke-dasharray:none"
       id="rect935" />
    <rect
       x="289.44638"
       y="144.70244"
       width="38.298748"
       height="38.269459"
       ry="3.759357"
       rx="3.8593311"
       inkscape:r_cx="true"
       inkscape:r_cy="true"
       style="color:#000000;display:block;opacity:0.48888999;fill:none;stroke:#ffffff;stroke-width:1.07675374"
       id="rect939" />
    <path
       inkscape:r_cx="true"
       sodipodi:nodetypes="ccccc"
       d="m 328.29027,179.77801 c -0.0677,1.19557 -1.43136,3.12226 -3.06783,3.51971 l -2.38705,-5.84493 1.02333,-0.7301 z"
       inkscape:r_cy="true"
       style="color:#000000;display:block;opacity:0.48888999;fill:#ffffff;stroke-width:1.07675374"
       id="path943"
       inkscape:connector-curvature="0" />
    <path
       d="m 327.67714,146.78811 c -0.50621,-0.70021 -1.37301,-2.02283 -2.52874,-2.41183 l -2.23866,3.18984 1.08292,1.24481 z"
       sodipodi:nodetypes="ccccc"
       inkscape:r_cx="true"
       inkscape:r_cy="true"
       style="color:#000000;display:block;fill:url(#linearGradient963);stroke-width:1.19944572"
       id="path945"
       inkscape:connector-curvature="0" />
    <path
       inkscape:r_cx="true"
       sodipodi:nodetypes="ccccc"
       d="m 289.42476,146.72636 c 0.5055,-0.6851 1.29985,-1.90305 2.45528,-2.28364 l 2.16699,3.27322 -0.79493,1.21793 z"
       inkscape:r_cy="true"
       style="color:#000000;display:block;fill:url(#linearGradient965);stroke-width:1.18627048"
       id="path947"
       inkscape:connector-curvature="0" />
    <text
       xml:space="preserve"
       style="font-style:normal;font-variant:normal;font-weight:normal;font-stretch:normal;font-size:10.58333302px;line-height:1.25;font-family:Georgia;-inkscape-font-specification:Georgia;letter-spacing:0px;word-spacing:0px;fill:#000000;fill-opacity:1;stroke:none;stroke-width:0.26458332"
       x="-38.252132"
       y="174.04314"
       id="text973"><tspan
         sodipodi:role="line"
         id="tspan971"
         x="-38.252132"
         y="183.40691"
         style="stroke-width:0.26458332" /></text>
    <text
       xml:space="preserve"
       style="font-style:normal;font-variant:normal;font-weight:normal;font-stretch:normal;font-size:10.58333302px;line-height:1.25;font-family:Georgia;-inkscape-font-specification:Georgia;letter-spacing:0px;word-spacing:0px;fill:#000000;fill-opacity:1;stroke:none;stroke-width:0.26458332"
       x="-35.804737"
       y="175.13455"
       id="text977"><tspan
         sodipodi:role="line"
         id="tspan975"
         x="-35.804737"
         y="184.49832"
         style="stroke-width:0.26458332" /></text>
    <text
       xml:space="preserve"
       style="font-style:normal;font-variant:normal;font-weight:normal;font-stretch:normal;font-size:41.05675507px;line-height:1.25;font-family:Hack;-inkscape-font-specification:Hack;letter-spacing:0px;word-spacing:0px;fill:#000000;fill-opacity:1;stroke:none;stroke-width:1.02641892"
       x="298.7222"
       y="174.03551"
       id="text983"><tspan
         sodipodi:role="line"
         id="tspan981"
         x="298.7222"
         y="174.03551"
         style="font-style:normal;font-variant:normal;font-weight:normal;font-stretch:normal;font-size:32.84540558px;font-family:Hack;-inkscape-font-specification:Hack;stroke-width:1.02641892">K</tspan></text>
    <rect
       id="rect1213"
       style="color:#000000;display:block;fill:#d3d7cf;stroke:#888a85;stroke-width:1.07675374"
       inkscape:r_cy="true"
       inkscape:r_cx="true"
       rx="4.9468169"
       ry="4.9430094"
       height="40.340687"
       width="40.371609"
       y="194.31465"
       x="287.84927" />
    <rect
       id="rect1215"
       style="color:#000000;display:block;fill:url(#radialGradient1229);stroke:url(#linearGradient1231);stroke-width:1.07150066;stroke-miterlimit:4;stroke-dasharray:none"
       inkscape:r_cy="true"
       inkscape:r_cx="true"
       rx="3.8775506"
       ry="3.7390244"
       height="30.51436"
       width="31.64488"
       transform="scale(-1,1)"
       y="198.17039"
       x="-323.88474" />
    <rect
       id="rect1217"
       style="color:#000000;display:block;opacity:0.48888999;fill:none;stroke:#ffffff;stroke-width:1.07675374"
       inkscape:r_cy="true"
       inkscape:r_cx="true"
       rx="3.8593311"
       ry="3.759357"
       height="38.269459"
       width="38.298748"
       y="195.35001"
       x="288.8855" />
    <path
       inkscape:connector-curvature="0"
       id="path1219"
       style="color:#000000;display:block;opacity:0.48888999;fill:#ffffff;stroke-width:1.07675374"
       inkscape:r_cy="true"
       d="m 327.72939,230.42558 c -0.0677,1.19557 -1.43136,3.12226 -3.06783,3.51971 l -2.38705,-5.84493 1.02333,-0.7301 z"
       sodipodi:nodetypes="ccccc"
       inkscape:r_cx="true" />
    <path
       inkscape:connector-curvature="0"
       id="path1221"
       style="color:#000000;display:block;fill:url(#linearGradient1233);stroke-width:1.19944572"
       inkscape:r_cy="true"
       inkscape:r_cx="true"
       sodipodi:nodetypes="ccccc"
       d="m 327.11626,197.43568 c -0.50621,-0.70021 -1.37301,-2.02283 -2.52874,-2.41183 l -2.23866,3.18984 1.08292,1.24481 z" />
    <path
       inkscape:connector-curvature="0"
       id="path1223"
       style="color:#000000;display:block;fill:url(#linearGradient1235);stroke-width:1.18627048"
       inkscape:r_cy="true"
       d="m 288.86388,197.37393 c 0.5055,-0.6851 1.29985,-1.90305 2.45528,-2.28364 l 2.16699,3.27322 -0.79493,1.21793 z"
       sodipodi:nodetypes="ccccc"
       inkscape:r_cx="true" />
    <text
       id="text1227"
       y="224.68307"
       x="298.16132"
       style="font-style:normal;font-variant:normal;font-weight:normal;font-stretch:normal;font-size:41.05675507px;line-height:1.25;font-family:Hack;-inkscape-font-specification:Hack;letter-spacing:0px;word-spacing:0px;fill:#000000;fill-opacity:1;stroke:none;stroke-width:1.02641892"
       xml:space="preserve"><tspan
         style="font-style:normal;font-variant:normal;font-weight:normal;font-stretch:normal;font-size:32.84540558px;font-family:Hack;-inkscape-font-specification:Hack;stroke-width:1.02641892"
         y="224.68307"
         x="298.16132"
         id="tspan1225"
         sodipodi:role="line">J</tspan></text>
    <g
       id="g1317"
       transform="translate(108.91233)">
      <g
         id="g1391">
        <rect
           id="rect1237"
           style="color:#000000;display:block;fill:#d3d7cf;stroke:#888a85;stroke-width:1.07675374"
           inkscape:r_cy="true"
           inkscape:r_cx="true"
           rx="4.9468169"
           ry="4.9430094"
           height="40.340687"
           width="40.371609"
           y="143.66708"
           x="73.926369" />
        <rect
           id="rect1239"
           style="color:#000000;display:block;fill:url(#radialGradient1405);stroke:url(#linearGradient1407);stroke-width:1.07150066;stroke-miterlimit:4;stroke-dasharray:none"
           inkscape:r_cy="true"
           inkscape:r_cx="true"
           rx="3.8775506"
           ry="3.7390244"
           height="30.51436"
           width="31.64488"
           transform="scale(-1,1)"
           y="147.52283"
           x="-109.96183" />
        <rect
           id="rect1241"
           style="color:#000000;display:block;opacity:0.48888999;fill:none;stroke:#ffffff;stroke-width:1.07675374"
           inkscape:r_cy="true"
           inkscape:r_cx="true"
           rx="3.8593311"
           ry="3.759357"
           height="38.269459"
           width="38.298748"
           y="144.70244"
           x="74.962578" />
        <path
           inkscape:connector-curvature="0"
           id="path1243"
           style="color:#000000;display:block;opacity:0.48888999;fill:#ffffff;stroke-width:1.07675374"
           inkscape:r_cy="true"
           d="m 113.80647,179.77801 c -0.0677,1.19557 -1.43136,3.12226 -3.06783,3.51971 l -2.38705,-5.84493 1.02333,-0.7301 z"
           sodipodi:nodetypes="ccccc"
           inkscape:r_cx="true" />
        <path
           inkscape:connector-curvature="0"
           id="path1245"
           style="color:#000000;display:block;fill:url(#linearGradient1273);stroke-width:1.19944572"
           inkscape:r_cy="true"
           inkscape:r_cx="true"
           sodipodi:nodetypes="ccccc"
           d="m 113.19334,146.78811 c -0.50621,-0.70021 -1.37301,-2.02283 -2.52874,-2.41183 l -2.23866,3.18984 1.08292,1.24481 z" />
        <path
           inkscape:connector-curvature="0"
           id="path1247"
           style="color:#000000;display:block;fill:url(#linearGradient1409);stroke-width:1.18627048"
           inkscape:r_cy="true"
           d="m 74.940962,146.72636 c 0.5055,-0.6851 1.29985,-1.90305 2.45528,-2.28364 l 2.16699,3.27322 -0.79493,1.21793 z"
           sodipodi:nodetypes="ccccc"
           inkscape:r_cx="true" />
        <rect
           x="73.926369"
           y="143.66708"
           width="84.070175"
           height="40.340683"
           ry="4.9430094"
           rx="4.9468169"
           inkscape:r_cx="true"
           inkscape:r_cy="true"
           style="color:#000000;display:block;fill:#d3d7cf;stroke:#888a85;stroke-width:1.07675374"
           id="rect1285" />
        <rect
           x="-153.39313"
           y="147.52283"
           transform="scale(-1,1)"
           width="75.076134"
           height="30.514359"
           ry="3.7390244"
           rx="3.8775506"
           inkscape:r_cx="true"
           inkscape:r_cy="true"
           style="color:#000000;display:block;fill:url(#radialGradient1411);stroke:url(#linearGradient1413);stroke-width:1.07150066;stroke-miterlimit:4;stroke-dasharray:none"
           id="rect1287" />
        <rect
           x="74.962578"
           y="144.70244"
           width="81.997314"
           height="38.269455"
           ry="3.759357"
           rx="3.8593311"
           inkscape:r_cx="true"
           inkscape:r_cy="true"
           style="color:#000000;display:block;opacity:0.48888999;fill:none;stroke:#ffffff;stroke-width:1.07675374"
           id="rect1289" />
        <path
           inkscape:r_cx="true"
           sodipodi:nodetypes="ccccc"
           d="m 156.83686,179.77801 c -0.0677,1.19557 -1.43136,3.12226 -3.06783,3.51971 l -2.38705,-5.84493 1.02333,-0.7301 z"
           inkscape:r_cy="true"
           style="color:#000000;display:block;opacity:0.48888999;fill:#ffffff;stroke-width:1.07675374"
           id="path1291"
           inkscape:connector-curvature="0" />
        <path
           d="m 156.62464,146.78811 c -0.50621,-0.70021 -1.37301,-2.02283 -2.52874,-2.41183 l -2.23866,3.18984 1.08292,1.24481 z"
           sodipodi:nodetypes="ccccc"
           inkscape:r_cx="true"
           inkscape:r_cy="true"
           style="color:#000000;display:block;fill:url(#linearGradient1377);stroke-width:1.19944572"
           id="path1293"
           inkscape:connector-curvature="0" />
        <path
           inkscape:r_cx="true"
           sodipodi:nodetypes="ccccc"
           d="m 74.940962,146.72636 c 0.5055,-0.6851 1.29985,-1.90305 2.45528,-2.28364 l 2.16699,3.27322 -0.79493,1.21793 z"
           inkscape:r_cy="true"
           style="color:#000000;display:block;fill:url(#linearGradient1275);stroke-width:1.18627048"
           id="path1295"
           inkscape:connector-curvature="0" />
      </g>
    </g>
    <text
       id="text1251"
       y="174.83733"
       x="186.73628"
       style="font-style:normal;font-variant:normal;font-weight:normal;font-stretch:normal;font-size:41.05675507px;line-height:1.25;font-family:Hack;-inkscape-font-specification:Hack;letter-spacing:0px;word-spacing:0px;fill:#000000;fill-opacity:1;stroke:none;stroke-width:1.02641892"
       xml:space="preserve"><tspan
         style="font-style:normal;font-variant:normal;font-weight:normal;font-stretch:normal;font-size:32.84540558px;font-family:sans-serif;-inkscape-font-specification:sans-serif;stroke-width:1.02641892"
         y="174.83733"
         x="186.73628"
         id="tspan1249"
         sodipodi:role="line">Shift</tspan></text>
    <text
       xml:space="preserve"
       style="font-style:normal;font-variant:normal;font-weight:normal;font-stretch:normal;font-size:10.58333302px;line-height:1.25;font-family:Hack;-inkscape-font-specification:Hack;letter-spacing:0px;word-spacing:0px;fill:#000000;fill-opacity:1;stroke:none;stroke-width:0.26458332"
       x="270.34311"
       y="170.84877"
       id="text1395"><tspan
         sodipodi:role="line"
         id="tspan1393"
         x="270.34311"
         y="170.84877"
         style="font-size:25.39999962px;fill:#ffffff;stroke-width:0.26458332">+</tspan></text>
    <text
       xml:space="preserve"
       style="font-style:normal;font-variant:normal;font-weight:normal;font-stretch:normal;font-size:13.98703384px;line-height:1.25;font-family:sans-serif;-inkscape-font-specification:sans-serif;letter-spacing:0px;word-spacing:0px;fill:#000000;fill-opacity:1;stroke:none;stroke-width:0.34967583"
       x="65.523926"
       y="168.22302"
       id="text1399"><tspan
         sodipodi:role="line"
         x="65.523926"
         y="168.22302"
         style="fill:#ffffff;stroke-width:0.34967583"
         id="tspan1401">Select previous</tspan></text>
    <g
       transform="translate(108.91233,50.246671)"
       id="g1443">
      <g
         id="g1441">
        <rect
           x="73.926369"
           y="143.66708"
           width="40.371609"
           height="40.340687"
           ry="4.9430094"
           rx="4.9468169"
           inkscape:r_cx="true"
           inkscape:r_cy="true"
           style="color:#000000;display:block;fill:#d3d7cf;stroke:#888a85;stroke-width:1.07675374"
           id="rect1417" />
        <rect
           x="-109.96183"
           y="147.52283"
           transform="scale(-1,1)"
           width="31.64488"
           height="30.51436"
           ry="3.7390244"
           rx="3.8775506"
           inkscape:r_cx="true"
           inkscape:r_cy="true"
           style="color:#000000;display:block;fill:url(#radialGradient1453);stroke:url(#linearGradient1455);stroke-width:1.07150066;stroke-miterlimit:4;stroke-dasharray:none"
           id="rect1419" />
        <rect
           x="74.962578"
           y="144.70244"
           width="38.298748"
           height="38.269459"
           ry="3.759357"
           rx="3.8593311"
           inkscape:r_cx="true"
           inkscape:r_cy="true"
           style="color:#000000;display:block;opacity:0.48888999;fill:none;stroke:#ffffff;stroke-width:1.07675374"
           id="rect1421" />
        <path
           inkscape:r_cx="true"
           sodipodi:nodetypes="ccccc"
           d="m 113.80647,179.77801 c -0.0677,1.19557 -1.43136,3.12226 -3.06783,3.51971 l -2.38705,-5.84493 1.02333,-0.7301 z"
           inkscape:r_cy="true"
           style="color:#000000;display:block;opacity:0.48888999;fill:#ffffff;stroke-width:1.07675374"
           id="path1423"
           inkscape:connector-curvature="0" />
        <path
           d="m 113.19334,146.78811 c -0.50621,-0.70021 -1.37301,-2.02283 -2.52874,-2.41183 l -2.23866,3.18984 1.08292,1.24481 z"
           sodipodi:nodetypes="ccccc"
           inkscape:r_cx="true"
           inkscape:r_cy="true"
           style="color:#000000;display:block;fill:url(#linearGradient1457);stroke-width:1.19944572"
           id="path1425"
           inkscape:connector-curvature="0" />
        <path
           inkscape:r_cx="true"
           sodipodi:nodetypes="ccccc"
           d="m 74.940962,146.72636 c 0.5055,-0.6851 1.29985,-1.90305 2.45528,-2.28364 l 2.16699,3.27322 -0.79493,1.21793 z"
           inkscape:r_cy="true"
           style="color:#000000;display:block;fill:url(#linearGradient1459);stroke-width:1.18627048"
           id="path1427"
           inkscape:connector-curvature="0" />
        <rect
           id="rect1429"
           style="color:#000000;display:block;fill:#d3d7cf;stroke:#888a85;stroke-width:1.07675374"
           inkscape:r_cy="true"
           inkscape:r_cx="true"
           rx="4.9468169"
           ry="4.9430094"
           height="40.340683"
           width="84.070175"
           y="143.66708"
           x="73.926369" />
        <rect
           id="rect1431"
           style="color:#000000;display:block;fill:url(#radialGradient1461);stroke:url(#linearGradient1463);stroke-width:1.07150066;stroke-miterlimit:4;stroke-dasharray:none"
           inkscape:r_cy="true"
           inkscape:r_cx="true"
           rx="3.8775506"
           ry="3.7390244"
           height="30.514359"
           width="75.076134"
           transform="scale(-1,1)"
           y="147.52283"
           x="-153.39313" />
        <rect
           id="rect1433"
           style="color:#000000;display:block;opacity:0.48888999;fill:none;stroke:#ffffff;stroke-width:1.07675374"
           inkscape:r_cy="true"
           inkscape:r_cx="true"
           rx="3.8593311"
           ry="3.759357"
           height="38.269455"
           width="81.997314"
           y="144.70244"
           x="74.962578" />
        <path
           inkscape:connector-curvature="0"
           id="path1435"
           style="color:#000000;display:block;opacity:0.48888999;fill:#ffffff;stroke-width:1.07675374"
           inkscape:r_cy="true"
           d="m 156.83686,179.77801 c -0.0677,1.19557 -1.43136,3.12226 -3.06783,3.51971 l -2.38705,-5.84493 1.02333,-0.7301 z"
           sodipodi:nodetypes="ccccc"
           inkscape:r_cx="true" />
        <path
           inkscape:connector-curvature="0"
           id="path1437"
           style="color:#000000;display:block;fill:url(#linearGradient1465);stroke-width:1.19944572"
           inkscape:r_cy="true"
           inkscape:r_cx="true"
           sodipodi:nodetypes="ccccc"
           d="m 156.62464,146.78811 c -0.50621,-0.70021 -1.37301,-2.02283 -2.52874,-2.41183 l -2.23866,3.18984 1.08292,1.24481 z" />
        <path
           inkscape:connector-curvature="0"
           id="path1439"
           style="color:#000000;display:block;fill:url(#linearGradient1467);stroke-width:1.18627048"
           inkscape:r_cy="true"
           d="m 74.940962,146.72636 c 0.5055,-0.6851 1.29985,-1.90305 2.45528,-2.28364 l 2.16699,3.27322 -0.79493,1.21793 z"
           sodipodi:nodetypes="ccccc"
           inkscape:r_cx="true" />
      </g>
    </g>
    <text
       xml:space="preserve"
       style="font-style:normal;font-variant:normal;font-weight:normal;font-stretch:normal;font-size:41.05675507px;line-height:1.25;font-family:Hack;-inkscape-font-specification:Hack;letter-spacing:0px;word-spacing:0px;fill:#000000;fill-opacity:1;stroke:none;stroke-width:1.02641892"
       x="186.73628"
       y="225.084"
       id="text1447"><tspan
         sodipodi:role="line"
         id="tspan1445"
         x="186.73628"
         y="225.084"
         style="font-style:normal;font-variant:normal;font-weight:normal;font-stretch:normal;font-size:32.84540558px;font-family:sans-serif;-inkscape-font-specification:sans-serif;stroke-width:1.02641892">Shift</tspan></text>
    <text
       id="text1451"
       y="221.09544"
       x="270.34311"
       style="font-style:normal;font-variant:normal;font-weight:normal;font-stretch:normal;font-size:10.58333302px;line-height:1.25;font-family:Hack;-inkscape-font-specification:Hack;letter-spacing:0px;word-spacing:0px;fill:#000000;fill-opacity:1;stroke:none;stroke-width:0.26458332"
       xml:space="preserve"><tspan
         style="font-size:25.39999962px;fill:#ffffff;stroke-width:0.26458332"
         y="221.09544"
         x="270.34311"
         id="tspan1449"
         sodipodi:role="line">+</tspan></text>
    <path
       style="opacity:1;fill:#ffffff;fill-opacity:1;stroke:#ffffff;stroke-width:0.79374999;stroke-miterlimit:4;stroke-dasharray:none"
       id="path1477"
       d="m 79.032729,155.1772 c -1.420318,-0.8005 -2.707857,-1.80722 -3.980614,-2.81964 -0.73347,-0.50288 -1.312368,-1.23883 -2.100673,-1.66162 -0.5169,-0.21957 -1.056716,-0.3836 -1.590331,-0.55794 -1.393327,-0.43832 -2.772523,-0.92254 -4.142179,-1.4298 -1.087599,-0.40254 -2.158971,-0.84641 -3.239516,-1.26709 -0.40903,-0.1696 -0.834969,-0.29787 -1.246013,-0.4607 -0.230256,-0.0923 -0.458343,-0.18661 -0.691493,-0.27222 -0.226344,-0.0683 -0.426691,-0.18796 -0.590505,-0.35704 -0.140849,-0.17225 -0.234149,-0.37963 -0.331251,-0.57874 -0.103801,-0.24199 -0.302003,-0.42834 -0.42196,-0.65914 -0.199742,-0.91618 1.523217,-1.36968 2.277237,-1.05162 0.228378,0.10795 0.479446,0.11846 0.727234,0.13064 0.479025,0.0344 0.960866,0.074 1.437248,0.13841 0.591659,0.0974 1.180801,0.18805 1.779225,0.23293 0.734219,0.0447 1.470224,0.0455 2.20553,0.0478 0.561371,-1.6e-4 1.122741,-0.001 1.684112,-0.001 0,0 -1.602054,1.16421 -1.602054,1.16421 v 0 c -0.560697,8e-4 -1.121402,0.002 -1.682094,-0.001 -0.739175,-0.004 -1.479349,-0.005 -2.216992,-0.058 -0.600395,-0.0517 -1.191918,-0.15163 -1.788017,-0.23687 -0.477517,-0.0527 -0.956381,-0.10152 -1.436229,-0.1258 -0.261763,-0.0224 -0.516261,-0.0636 -0.759595,-0.1677 -0.099,-0.0201 -0.200046,-0.0389 -0.301694,-0.0363 -0.03482,7.9e-4 -0.133025,0.0295 -0.103971,0.0103 1.561844,-1.03243 2.109023,-0.64872 1.519471,-1.03184 0.09813,0.23736 0.325014,0.41562 0.415684,0.66023 0.08872,0.17767 0.171971,0.36492 0.299992,0.51777 0.157449,0.14003 0.342749,0.22637 0.542981,0.29049 0.231256,0.0893 0.46264,0.17832 0.692084,0.27227 0.414033,0.14952 0.822142,0.3137 1.232519,0.47301 1.069639,0.42781 2.128832,0.88176 3.209213,1.28242 1.374989,0.50862 2.762483,0.98484 4.167859,1.40301 0.545754,0.1771 1.104607,0.33359 1.620454,0.5877 0.765241,0.4721 1.352712,1.18452 2.079107,1.71042 1.264359,1.01412 2.553017,2.01459 3.992089,2.77245 0,0 -1.656858,1.08087 -1.656858,1.08087 z"
       inkscape:connector-curvature="0" />
    <path
       style="opacity:1;fill:#ffffff;fill-opacity:1;stroke:#ffffff;stroke-width:0.79374999;stroke-miterlimit:4;stroke-dasharray:none"
       id="path1479"
       d="m 62.796956,144.74657 c 0.308497,1.66247 0.808948,3.27979 1.326346,4.88673 0.448104,1.32697 0.9648,2.62886 1.449538,3.94234 0.14115,0.34214 0.07412,0.18151 0.20066,0.48206 0,0 -1.735,0.97058 -1.735,0.97058 v 0 c -0.121996,-0.30754 -0.05701,-0.14237 -0.19454,-0.49567 -0.458348,-1.3275 -0.961559,-2.63942 -1.411779,-3.96988 -0.523674,-1.61099 -1.023253,-3.23078 -1.387438,-4.8866 0,0 1.752213,-0.92956 1.752213,-0.92956 z"
       inkscape:connector-curvature="0" />
    <text
       id="text1483"
       y="216.59882"
       x="81.159195"
       style="font-style:normal;font-variant:normal;font-weight:normal;font-stretch:normal;font-size:13.98703384px;line-height:1.25;font-family:sans-serif;-inkscape-font-specification:sans-serif;letter-spacing:0px;word-spacing:0px;fill:#000000;fill-opacity:1;stroke:none;stroke-width:0.34967583"
       xml:space="preserve"><tspan
         id="tspan1481"
         style="fill:#ffffff;stroke-width:0.34967583"
         y="216.59882"
         x="81.159195"
         sodipodi:role="line">Select next</tspan></text>
    <path
       style="opacity:1;fill:#ffffff;fill-opacity:1;stroke:#ffffff;stroke-width:0.79374999;stroke-miterlimit:4;stroke-dasharray:none"
       id="path1485"
       d="m 94.829541,220.1148 c -0.04197,0.81484 -0.06193,1.63089 -0.144015,2.44295 -0.09162,0.66859 -0.249634,1.32493 -0.362254,1.9898 -0.127463,0.86853 -0.291375,1.73011 -0.461986,2.59098 -0.204695,1.08773 -0.311116,2.18996 -0.439034,3.28831 -0.06683,0.66029 -0.19058,1.31269 -0.273262,1.97091 -0.04155,0.38541 -0.111461,0.76639 -0.149021,1.15237 -0.04867,0.54878 -0.04812,1.09804 0.0047,1.64602 0.132495,1.16274 0.354407,2.3151 0.577612,3.46348 0.294082,1.56767 0.651909,3.12135 1.027885,4.67097 0.258326,1.05314 0.549717,2.09777 0.816745,3.14865 0.114231,0.6127 0.231788,1.22449 0.352597,1.83592 0.06426,0.40455 0.10849,0.81095 0.173733,1.21548 0.0795,0.51148 0.247007,0.99778 0.422442,1.48256 0.170434,0.45626 0.376277,0.90291 0.731594,1.24309 0.04059,0.0236 0.07836,0.0529 0.121777,0.0709 0.196421,0.081 0.428945,0.10926 0.635643,0.14602 0.428199,0.0762 0.218884,0.0361 0.661498,0.12793 0.843902,0.17662 1.659965,0.45533 2.478745,0.72053 0.98061,0.33775 1.98588,0.58128 3.00252,0.78005 0.63688,0.0937 1.2659,0.23726 1.90632,0.30545 1.13135,0.0668 2.26475,-0.0945 3.38515,-0.23409 1.86631,-0.29487 3.73937,-0.59418 5.57553,-1.04704 0.45249,-0.1116 0.90026,-0.24152 1.3504,-0.36228 3.45759,-1.03486 6.79363,-2.42884 10.12794,-3.7996 3.06911,-1.27793 6.13667,-2.55948 9.19517,-3.86263 1.41638,-0.63295 2.85371,-1.21472 4.29269,-1.7936 0.87052,-0.31127 1.72554,-0.66109 2.57479,-1.0257 0.77105,-0.27648 3.04496,-1.6157 -0.0245,0.13935 0.34513,-0.23173 0.716,-0.43236 1.035,-0.70145 0.21038,-0.17746 0.59071,-0.55343 0.76568,-0.72257 1.65006,-1.62852 3.16093,-3.38896 4.67704,-5.14054 1.97195,-2.23606 3.86062,-4.54315 5.75855,-6.84179 1.34027,-1.60387 2.70519,-3.18749 4.11001,-4.73522 0.70589,-0.76585 1.44137,-1.50403 2.17018,-2.24804 0.47278,-0.44381 0.8846,-0.9408 1.28982,-1.44505 0.45801,-0.568 0.93858,-1.11615 1.36416,-1.70933 0.4506,-0.65077 0.85347,-1.33239 1.2669,-2.00684 0.32151,-0.54952 0.638,-1.10178 0.96312,-1.64923 0.33634,-0.51394 0.68365,-1.0197 1.00705,-1.54219 0.72709,-1.2329 1.37102,-2.51248 2.03902,-3.77776 0.85777,-1.65614 1.76519,-3.28549 2.64654,-4.92898 0.84297,-1.59185 1.66349,-3.19537 2.46571,-4.80807 0.74047,-1.38744 1.47643,-2.7765 2.14367,-4.20104 0.4734,-0.96749 0.86551,-1.97049 1.2908,-2.95895 0.1999,-0.43481 0.35543,-0.88605 0.52125,-1.33405 0.26894,-0.7003 0.32115,-1.44741 0.35083,-2.18928 0.0352,-1.39291 -0.14143,-2.77921 -0.33548,-4.15535 -0.2091,-1.30564 -0.46797,-2.60359 -0.75751,-3.8937 -0.13391,-0.53451 -0.24456,-1.07359 -0.29819,-1.62221 -0.0305,-0.40001 -0.0224,-0.80183 -0.0193,-1.20264 -0.007,-0.83559 0.0217,-1.66942 0.0662,-2.50361 0.0751,-0.80904 0.14176,-1.61837 0.17873,-2.43011 0.0159,-0.8375 0.0383,-1.67368 0.0883,-2.5099 0.0312,-0.51633 0.0695,-1.03265 0.054,-1.55004 -0.0283,-0.78539 -0.15956,-1.55995 -0.3069,-2.33017 -0.32656,-1.56332 -0.74795,-3.10136 -1.22614,-4.62426 -0.51959,-1.65661 -1.11711,-3.28701 -1.73031,-4.91077 -0.26741,-0.52519 -0.37421,-1.16905 -0.74614,-1.64027 -0.13879,-0.11978 -0.31149,-0.22393 -0.48763,-0.28057 -0.37683,-0.16918 -0.73106,-0.37479 -1.0804,-0.59469 -0.7759,-0.4973 -1.51963,-1.04176 -2.2707,-1.57503 -1.40948,-0.98355 -2.87473,-1.88556 -4.33134,-2.7972 -2.36717,-1.5134 -4.82559,-2.87217 -7.31142,-4.1783 -2.83398,-1.46322 -5.73195,-2.79755 -8.69537,-3.97592 -2.44928,-0.94949 -4.95637,-1.74007 -7.45786,-2.53851 -2.3484,-0.73543 -4.69702,-1.47003 -7.04738,-2.19925 -2.29512,-0.66612 -4.54303,-1.47768 -6.81149,-2.22582 -2.24065,-0.75203 -4.50217,-1.43969 -6.76759,-2.1129 -2.05105,-0.61861 -4.10631,-1.22241 -6.17831,-1.76709 -1.50213,-0.39005 -3.00338,-0.78376 -4.49917,-1.19757 -1.31671,-0.38762 -2.64429,-0.73318 -3.9815,-1.04199 -1.16584,-0.26851 -2.3375,-0.51178 -3.51508,-0.72314 -1.47937,-0.25703 -2.962936,-0.48909 -4.445492,-0.72774 -1.66402,-0.27162 -3.332234,-0.51966 -5.004409,-0.73565 -1.6124,-0.23215 -3.228202,-0.4437 -4.848902,-0.60899 -1.01188,-0.10268 -2.025406,-0.16896 -3.041758,-0.1232 -0.641271,0.0564 -1.264309,0.22637 -1.890549,0.36665 -0.447627,0.17201 -0.848966,0.20354 -1.321464,0.15167 -0.624139,-0.0936 -1.25358,-0.0244 -1.877827,0.0273 -0.786815,0.0607 -1.576575,0.0656 -2.365277,0.074 -0.840767,0.007 -1.681567,0.006 -2.522355,0.007 -0.568524,0.0186 -1.140756,-0.0297 -1.707534,0.024 -0.382373,0.0788 -0.76658,0.033 -1.151802,0.0129 -0.561253,-0.0246 -1.123106,-0.0295 -1.684801,-0.0339 -0.833228,-0.0435 -1.661924,-0.1409 -2.493962,-0.20118 -0.727454,-0.0481 -1.456524,-0.0615 -2.185345,-0.0675 -0.444725,-0.002 -0.889452,-2.4e-4 -1.334177,5.3e-4 -0.371832,0.003 -0.739534,0.0175 -1.106345,-0.0484 -0.241204,-0.0526 -0.487174,-0.0691 -0.733173,-0.0781 -0.230079,-0.0658 -0.486146,-0.0493 -0.682871,-0.19715 -0.0667,-0.0737 -0.152183,-0.2242 -0.04055,-0.28629 1.898938,-1.05621 1.153046,-0.91845 2.011529,-1.05524 0.397497,-0.0959 0.802264,-0.15352 1.20147,-0.24374 0.476549,-0.0936 0.951299,-0.19225 1.427372,-0.28853 0.425172,-0.0651 0.833315,-0.20273 1.257815,-0.27143 0.289505,-0.0155 0.564754,-0.102 0.852837,-0.12968 0.503759,-0.0701 0.997236,-0.19035 1.487485,-0.32442 0.466812,-0.11599 0.930262,-0.24426 1.404874,-0.32533 0.27491,-0.0421 0.535578,-0.14025 0.813065,-0.17077 0.132662,7.9e-4 0.258368,-0.0427 0.386461,-0.0714 0,0 -1.588839,1.20605 -1.588839,1.20605 v 0 c -0.130596,0.0263 -0.261477,0.0472 -0.39374,0.0635 -0.268851,0.0557 -0.532675,0.13429 -0.80531,0.17136 -0.467918,0.0922 -0.928526,0.2174 -1.390827,0.3338 -0.498313,0.12722 -0.998939,0.24429 -1.509823,0.30941 -0.282443,0.0473 -0.562653,0.10488 -0.847413,0.13771 -0.418082,0.0839 -0.828485,0.2033 -1.250196,0.27009 -0.476083,0.0935 -0.949672,0.1984 -1.425871,0.29131 -0.401728,0.0826 -0.806765,0.14964 -1.204474,0.2504 -0.726897,0.22977 -0.232312,0.0854 1.435997,-0.88351 0.01619,-0.009 -0.02527,0.0407 -0.04333,0.0358 -0.0459,-0.0127 -0.130985,-0.13825 -0.09841,-0.10353 0.195259,0.0773 0.41801,0.0841 0.623117,0.11699 0.249994,0.0164 0.497795,0.0481 0.743895,0.0956 0.359873,0.0461 0.723167,0.0199 1.085061,0.0257 0.443741,-5.3e-4 0.887513,-7.9e-4 1.331225,0.005 0.728318,0.0118 1.456793,0.033 2.183545,0.0841 0.831075,0.0647 1.659975,0.16327 2.493886,0.18481 0.565084,0.004 1.130213,0.0129 1.694847,0.037 0.380796,0.0185 0.758216,0.0282 1.136845,-0.031 0.568312,-0.024 1.137598,-2.6e-4 1.706256,-0.006 0.839396,10e-4 1.678816,10e-4 2.518182,-0.007 0.788633,-0.0103 1.578004,-0.0227 2.364275,-0.09 0.632851,-0.0494 1.268182,-0.0911 1.900489,-0.005 0.455607,0.0199 0.851355,-0.0621 1.285136,-0.1985 0.628886,-0.14178 1.258869,-0.29983 1.905416,-0.3323 1.015132,-0.0299 2.026824,0.0548 3.036003,0.16173 1.620528,0.17591 3.237471,0.3847 4.851366,0.6134 1.670505,0.22312 3.337317,0.47421 5.00076,0.74492 1.489787,0.23726 2.981577,0.46169 4.468347,0.71703 1.17636,0.21936 2.34784,0.4633 3.51307,0.7358 1.33697,0.31211 2.66335,0.66372 3.98021,1.05242 1.49311,0.4083 2.98999,0.80251 4.48451,1.20558 2.06797,0.55502 4.12373,1.15382 6.17166,1.77867 2.26583,0.67747 4.52857,1.36661 6.7714,2.11709 2.26404,0.74808 4.50788,1.5584 6.79627,2.23189 2.35487,0.7281 4.71263,1.4468 7.06231,2.1916 2.49735,0.80959 5.00107,1.60907 7.4487,2.56085 2.95951,1.19606 5.8535,2.54446 8.6948,3.99935 2.49679,1.30473 4.9669,2.66025 7.34534,4.17293 1.47097,0.90764 2.95418,1.8 4.37709,2.78193 0.74997,0.53123 1.49467,1.07121 2.27563,1.55682 0.34724,0.20976 0.70152,0.40384 1.07738,0.5581 0.19743,0.0967 0.39785,0.20449 0.54254,0.37366 0.35983,0.50814 0.48298,1.15074 0.73888,1.70935 0.5914,1.63555 1.19416,3.26767 1.72735,4.92344 0.48047,1.5279 0.8995,3.07188 1.24847,4.6355 0.16474,0.77394 0.31031,1.55339 0.34287,2.34599 0.0298,0.52467 -0.01,1.04849 -0.0497,1.57192 -0.0583,0.83515 -0.088,1.66994 -0.0927,2.50719 -0.0321,0.81288 -0.0993,1.62326 -0.17849,2.43286 -0.0479,0.82935 -0.0871,1.65827 -0.0614,2.48938 0.001,0.39479 -0.004,0.79001 0.0162,1.18443 0.041,0.54379 0.14177,1.07876 0.26794,1.60908 0.28003,1.2995 0.52326,2.60737 0.74074,3.9187 0.20606,1.38236 0.39254,2.77516 0.36914,4.17612 -0.0144,0.7554 -0.0525,1.51644 -0.29932,2.23768 -0.17581,0.44971 -0.31722,0.9114 -0.52682,1.34811 -0.44773,0.98718 -0.83152,2.00322 -1.31546,2.97456 -0.66256,1.42865 -1.39548,2.82182 -2.14398,4.20699 -0.80953,1.61378 -1.63103,3.2214 -2.47444,4.81786 -0.87585,1.64484 -1.78822,3.26988 -2.6428,4.92613 -0.66383,1.26022 -1.29756,2.5372 -2.00309,3.77491 -0.31363,0.52393 -0.64445,1.03591 -0.99491,1.53602 -0.33463,0.54534 -0.65524,1.09873 -0.97117,1.6551 -0.41971,0.67295 -0.81747,1.35973 -1.26234,2.01691 -0.41218,0.60618 -0.89449,1.15425 -1.35884,1.72043 -0.40243,0.51134 -0.8027,1.02384 -1.2842,1.46511 -0.73582,0.74709 -1.47812,1.4883 -2.19706,2.25154 -1.42352,1.5488 -2.80441,3.13636 -4.15895,4.74575 -1.90223,2.29064 -3.78046,4.60191 -5.74449,6.84032 -1.5077,1.74325 -3.00937,3.49453 -4.62757,5.13739 -0.24674,0.24397 -0.48381,0.49801 -0.73862,0.73353 -0.30857,0.28522 -0.6807,0.48435 -1.023,0.72391 -1.10652,0.64146 -2.18693,1.32978 -3.3794,1.80205 -0.84524,0.35729 -1.69856,0.6929 -2.56011,1.00905 -1.42601,0.57346 -2.84861,1.15429 -4.25703,1.7701 -3.0464,1.28597 -6.09866,2.55791 -9.15243,3.82627 -3.34967,1.37746 -6.70166,2.77805 -10.17846,3.80806 -0.4543,0.12059 -0.90634,0.25007 -1.36291,0.36177 -1.847,0.45185 -3.72981,0.75474 -5.60689,1.04789 -1.14096,0.1431 -2.29897,0.3182 -3.45095,0.22334 -0.63797,-0.0821 -1.26692,-0.2223 -1.90106,-0.32863 -1.02044,-0.20944 -2.03024,-0.45924 -3.016674,-0.79763 -0.815909,-0.2622 -1.631802,-0.53023 -2.474114,-0.69648 -0.502735,-0.0978 -1.069139,-0.12271 -1.493782,-0.43455 -0.361548,-0.37254 -0.582604,-0.84236 -0.763757,-1.3248 -0.18289,-0.49434 -0.363889,-0.98872 -0.451678,-1.51061 -0.06227,-0.40363 -0.113884,-0.80721 -0.166055,-1.21216 -0.113287,-0.61019 -0.23427,-1.21876 -0.340976,-1.8302 -0.254151,-1.05703 -0.529783,-2.10875 -0.789366,-3.16446 -0.375968,-1.55204 -0.734534,-3.10792 -1.034656,-4.67676 -0.23123,-1.14944 -0.459576,-2.3031 -0.611092,-3.46581 -0.06378,-0.55718 -0.07404,-1.11584 -0.03251,-1.6756 0.03337,-0.3891 0.09748,-0.77274 0.147883,-1.15945 0.08394,-0.66156 0.219271,-1.31525 0.290661,-1.97846 0.139298,-1.10136 0.239414,-2.20851 0.435684,-3.3021 0.162367,-0.85865 0.331682,-1.71572 0.455528,-2.58112 0.102671,-0.66285 0.256418,-1.31598 0.362032,-1.97844 0.09594,-0.80412 0.124193,-1.613 0.150918,-2.42207 0,0 1.768608,-0.90115 1.768608,-0.90115 z"
       inkscape:connector-curvature="0" />
    <path
       style="opacity:1;fill:#ffffff;fill-opacity:1;stroke:#ffffff;stroke-width:0.79374999;stroke-miterlimit:4;stroke-dasharray:none"
       id="path1487"
       d="m 64.840855,126.2558 c 0.272102,0.77007 0.565681,1.53157 0.878768,2.28585 0.161491,0.42546 0.358611,0.83575 0.620564,1.20813 0.219668,0.30468 0.471062,0.58272 0.71324,0.86869 0.183716,0.20293 0.420706,0.34173 0.635559,0.5076 0.251544,0.17125 0.508494,0.33426 0.761066,0.50459 0.173947,0.0889 0.32481,0.21149 0.480044,0.32689 0.175392,0.15462 0.364151,0.28901 0.57872,0.38295 0.293328,0.15056 0.587423,0.30779 0.897732,0.42177 0.429733,0.15888 0.866182,0.29907 1.304215,0.43309 0,0 -1.640739,1.11786 -1.640739,1.11786 v 0 c -0.440457,-0.14011 -0.881253,-0.28024 -1.314019,-0.44292 -0.311269,-0.12752 -0.613608,-0.27675 -0.912317,-0.43132 -0.217681,-0.115 -0.416426,-0.25729 -0.604716,-0.41577 -0.147363,-0.11897 -0.310026,-0.21686 -0.469945,-0.31794 -0.25432,-0.17298 -0.5153,-0.33619 -0.766104,-0.51411 -0.228748,-0.17051 -0.471337,-0.32584 -0.658762,-0.5447 -0.245552,-0.29043 -0.491077,-0.58045 -0.716685,-0.88712 -0.271497,-0.38459 -0.476133,-0.80765 -0.636241,-1.25051 -0.307604,-0.75836 -0.590952,-1.52571 -0.885436,-2.28906 0,0 1.735056,-0.96397 1.735056,-0.96397 z"
       inkscape:connector-curvature="0" />
  </g>
</svg>
